<svg width="157" height="11" viewBox="0 0 157 11" fill="none" xmlns="http://www.w3.org/2000/svg">
<path d="M89.7645 3.64833C89.7645 3.96833 89.6782 4.28833 89.5056 4.60833C89.3331 4.92833 89.1605 5.24833 88.8154 5.40833C89.6782 5.80833 90.1096 6.52833 90.1096 7.48833C90.1096 8.44833 89.8508 9.24834 89.1605 9.80834C88.5565 10.4483 87.7799 10.6883 86.6582 10.6883H81.6537V0.52832H86.3131C87.2622 0.52832 88.1251 0.84832 88.7291 1.40832C89.4194 1.96832 89.7645 2.76832 89.7645 3.64833ZM86.1405 2.84832H84.3286V4.52833H86.1405C86.4857 4.52833 86.7445 4.36833 86.9171 4.12833C87.0897 3.88833 87.0034 3.56833 86.9171 3.32833C86.7445 2.92832 86.4857 2.84832 86.1405 2.84832ZM86.6582 6.68833H84.3286V8.44833H86.572C86.9171 8.44833 87.176 8.28833 87.3485 8.04833C87.5211 7.80833 87.4348 7.40833 87.3485 7.16833C87.176 6.76833 87.0034 6.68833 86.6582 6.68833Z" fill="#9FA2A9"/>
<path d="M106.159 7.08842L108.316 10.2885V10.6085H105.123L103.225 7.56842H101.758V10.6085H98.9107V0.52832H103.743C104.433 0.52832 105.037 0.608321 105.641 0.848325C106.245 1.08833 106.59 1.48833 106.935 1.80834C107.194 2.12834 107.539 2.68835 107.625 3.08836C107.712 3.64837 107.798 4.04837 107.712 4.52838C107.625 5.08839 107.453 5.48839 107.28 5.8884C106.935 6.44841 106.59 6.84841 106.159 7.08842ZM103.743 5.40839C104.001 5.40839 104.347 5.32839 104.519 5.16839C104.692 5.00839 104.778 4.84838 104.864 4.52838C104.951 4.28838 104.951 3.96837 104.864 3.72837C104.864 3.48836 104.692 3.32836 104.519 3.08836C104.347 2.92835 104.088 2.84835 103.743 2.84835C103.57 2.84835 103.397 2.84835 103.052 2.84835C102.793 2.84835 102.621 2.84835 102.276 2.84835C101.931 2.84835 101.844 2.84835 101.585 2.84835V5.32839H103.743V5.40839Z" fill="#9FA2A9"/>
<path d="M119.015 3.64833C119.015 3.96833 118.929 4.28833 118.756 4.60833C118.584 4.92833 118.411 5.24833 118.066 5.40833C118.929 5.80833 119.36 6.52833 119.36 7.48833C119.36 8.44833 119.101 9.24834 118.411 9.80834C117.807 10.4483 117.031 10.6883 115.909 10.6883H110.732V0.52832H115.391C116.34 0.52832 117.203 0.84832 117.807 1.40832C118.756 1.96832 119.015 2.76832 119.015 3.64833ZM115.391 2.84832H113.579V4.52833H115.391C115.736 4.52833 115.995 4.36833 116.168 4.12833C116.34 3.88833 116.254 3.56833 116.168 3.32833C116.081 2.92832 115.736 2.84832 115.391 2.84832ZM115.823 6.68833H113.579V8.44833H115.823C116.168 8.44833 116.427 8.28833 116.599 8.04833C116.772 7.80833 116.685 7.40833 116.599 7.16833C116.513 6.76833 116.254 6.68833 115.823 6.68833Z" fill="#9FA2A9"/>
<path d="M129.369 10.6879L128.679 9.40782H124.364L123.674 10.6879H120.999V10.3679L125.917 0.367188H127.125L132.13 10.3679V10.6879H129.369ZM127.729 7.16767L126.521 4.44748L125.313 7.16767H127.729Z" fill="#9FA2A9"/>
<path d="M142.657 10.7683L137.135 5.72828V10.7683H134.202V0.448242H135.237L140.759 5.48828V0.448242H143.693V10.7683H142.657Z" fill="#9FA2A9"/>
<path d="M150.595 0.52832C151.717 0.52832 152.752 0.768295 153.615 1.32824C154.478 1.88818 154.996 2.44812 155.427 3.24803C155.772 4.04795 156.031 4.84786 156.031 5.64778C156.031 6.52769 155.858 7.3276 155.427 8.04753C155.082 8.84744 154.392 9.40738 153.615 9.96732C152.752 10.5273 151.717 10.7672 150.595 10.7672H146.453V0.52832H150.595ZM149.214 2.84807V8.36749H150.509C150.94 8.36749 151.458 8.2875 151.803 8.12752C152.148 7.96753 152.493 7.72756 152.666 7.3276C152.838 7.00764 153.011 6.60768 153.097 6.28771C153.184 5.96774 153.184 5.4878 153.097 5.16783C153.011 4.84786 152.838 4.36791 152.666 4.12794C152.493 3.80797 152.234 3.48801 151.803 3.32802C151.458 3.16804 150.94 3.08805 150.509 3.08805H149.214V2.84807Z" fill="#9FA2A9"/>
<path d="M0.977566 7.24725C0.718712 6.60724 0.546143 5.88724 0.546143 5.16723C0.546143 4.44722 0.718712 3.72722 0.977566 3.08721C1.23642 2.44721 1.66784 1.9672 2.18555 1.5672C2.70326 1.16719 3.22097 0.847192 3.82496 0.68719C4.42895 0.527189 5.11923 0.367188 5.72322 0.367188C6.84492 0.367188 7.88034 0.68719 8.74318 1.2472C9.60603 1.8872 10.1237 2.76721 10.2963 3.88722H7.70777C7.5352 3.00721 6.75864 2.60721 5.63694 2.60721C4.94666 2.60721 4.25638 2.84721 3.82496 3.32721C3.39354 3.80722 3.13468 4.44722 3.13468 5.16723C3.13468 5.88724 3.39354 6.44724 3.82496 6.92725C4.25638 7.40725 4.86038 7.72725 5.63694 7.72725C6.24093 7.72725 6.67235 7.56725 7.10378 7.32725C7.5352 7.08725 7.70777 6.68724 7.79405 6.20724H10.2963C10.2963 7.08725 9.95117 7.72725 9.43346 8.36726C8.91575 8.92726 8.31176 9.32727 7.70777 9.56727C7.01749 9.80727 6.32721 9.88727 5.55065 9.88727C4.86038 9.88727 4.25638 9.80727 3.65239 9.56727C3.0484 9.32727 2.53069 9.08727 2.01298 8.68726C1.66784 8.28726 1.3227 7.80725 0.977566 7.24725Z" fill="#9FA2A9"/>
<path d="M13.489 9.72832V10.7683H11.3319V7.7283H12.3673L15.7324 0.448242H16.8541L20.3918 7.7283H21.5135V10.7683H19.3564V9.72832H13.489ZM16.4227 4.36827L15.0421 7.6483H17.8033L16.4227 4.36827Z" fill="#9FA2A9"/>
<path d="M29.1067 0.608398V2.76834H25.4827V4.12831H28.8478V6.28826H25.4827V7.96821H29.2793V10.1282H22.8942V0.608398H29.1067Z" fill="#9FA2A9"/>
<path d="M35.4916 4.52868L32.9031 9.96907H30.4871V9.64904L34.9739 0.608398H36.0093L40.4962 9.64904V9.96907H38.0802L35.4916 4.52868Z" fill="#9FA2A9"/>
<path d="M49.2111 9.96907L48.6071 8.76898H44.7243L44.1203 9.96907H41.7043V9.64904L46.1911 0.608398H47.3128L51.7133 9.64904V9.96907H49.2111ZM47.8305 6.84884L46.6225 4.44867L45.5008 6.84884C45.5008 6.84884 47.8305 6.84884 47.8305 6.84884Z" fill="#9FA2A9"/>
<path d="M61.2912 0.608398V9.96907H58.7026V6.2088H55.6827V9.96907H53.0941V0.608398H55.6827V4.04864H58.7026V0.608398H61.2912Z" fill="#9FA2A9"/>
<path d="M72.4213 3.16747C72.6801 3.80754 72.8527 4.52761 72.8527 5.32769C72.8527 6.12777 72.6801 6.76784 72.4213 7.4079C72.1624 8.04797 71.731 8.52802 71.2133 8.92806C70.6956 9.3281 70.1779 9.64813 69.5739 9.80815C68.9699 10.0482 68.2796 10.1282 67.6756 10.1282C67.0716 10.1282 66.3813 10.0482 65.7774 9.80815C65.1734 9.56812 64.5694 9.3281 64.1379 8.92806C63.6202 8.52802 63.2751 8.04797 62.93 7.4079C62.6711 6.76784 62.4985 6.04776 62.4985 5.24768C62.4985 4.4476 62.6711 3.72753 62.93 3.08746C63.1888 2.4474 63.6202 1.96735 64.1379 1.56731C64.6557 1.16727 65.1734 0.847236 65.7774 0.68722C66.3813 0.447196 67.0716 0.367188 67.6756 0.367188C68.3659 0.367188 68.9699 0.447196 69.5739 0.68722C70.1779 0.927244 70.7819 1.16727 71.2133 1.56731C71.731 2.04736 72.1624 2.52741 72.4213 3.16747ZM65.2596 5.16767C65.2596 5.72773 65.3459 6.20778 65.6048 6.60782C65.8636 7.00786 66.2088 7.32789 66.5539 7.48791C66.899 7.64793 67.3305 7.72793 67.7619 7.72793C68.1933 7.72793 68.6247 7.64793 68.9699 7.48791C69.315 7.32789 69.6602 7.00786 69.919 6.60782C70.1779 6.20778 70.2641 5.72773 70.2641 5.16767C70.2641 4.60762 70.0916 4.20758 69.8327 3.80754C69.5739 3.4075 69.2287 3.08746 68.8836 2.92745C68.5385 2.76743 68.107 2.68742 67.7619 2.68742C67.4168 2.68742 66.899 2.76743 66.5539 2.92745C66.2088 3.08746 65.8636 3.4075 65.6048 3.80754C65.3459 4.28759 65.2596 4.76763 65.2596 5.16767Z" fill="#9FA2A9"/>
</svg>
